<?xml version="1.0" encoding="UTF-8"?>
<svg xmlns="http://www.w3.org/2000/svg" version="1.1" viewBox="0 0 512 512">
  <defs>
    <style>
      .cls-1 {
        fill: #21d9ca;
      }
    </style>
  </defs>
  <!-- Generator: Adobe Illustrator 28.7.7, SVG Export Plug-In . SVG Version: 1.2.0 Build 194)  -->
  <g>
    <g id="Layer_1">
      <g id="Capa_1">
        <g>
          <path class="cls-1" d="M427.1,0H86.7c-8.3,0-15,6.7-15,15v44.8h-16.8c-8.3,0-15,6.7-15,15s6.7,15,15,15h16.8v42h-16.8c-8.3,0-15,6.7-15,15s6.7,15,15,15h16.8v42h-16.8c-8.3,0-15,6.7-15,15s6.7,15,15,15h16.8v42h-16.8c-8.3,0-15,6.7-15,15s6.7,15,15,15h16.8v42h-16.8c-8.3,0-15,6.7-15,15s6.7,15,15,15h16.8v42h-16.8c-8.3,0-15,6.7-15,15s6.7,15,15,15h16.8v47.2c0,8.3,6.7,15,15,15h340.4c24.8,0,45-20.2,45-45V45c0-24.8-20.2-45-45-45h0ZM442.1,467c0,8.3-6.7,15-15,15H101.7v-32.2h19.7c8.3,0,15-6.7,15-15s-6.7-15-15-15h-19.7v-42h19.7c8.3,0,15-6.7,15-15s-6.7-15-15-15h-19.7v-42h19.7c8.3,0,15-6.7,15-15s-6.7-15-15-15h-19.7v-42h19.7c8.3,0,15-6.7,15-15s-6.7-15-15-15h-19.7v-42h19.7c8.3,0,15-6.7,15-15s-6.7-15-15-15h-19.7v-42h19.7c8.3,0,15-6.7,15-15s-6.7-15-15-15h-19.7v-29.8h325.4c8.3,0,15,6.7,15,15v422h0Z"/>
          <path class="cls-1" d="M331.4,251.8c10.6-12.3,17.1-28.3,17.1-45.8,0-38.6-31.4-70-70-70s-70,31.4-70,70,6.5,33.5,17.1,45.8c-27.1,11.3-46.2,38.1-46.2,69.2v29.6c0,8.3,6.7,15,15,15h168.1c8.3,0,15-6.7,15-15v-29.6c0-31.1-19.1-57.9-46.2-69.2h.1ZM278.5,166.1c22.1,0,40,17.9,40,40s-17.9,40-40,40-40-17.9-40-40,17.9-40,40-40ZM347.5,335.7h-138.1v-14.6c0-24.8,20.2-45,45-45h48.1c24.8,0,45,20.2,45,45v14.6h0Z"/>
        </g>
      </g>
    </g>
  </g>
</svg>